<svg width="13" height="17" viewBox="0 0 13 17" fill="none" xmlns="http://www.w3.org/2000/svg">
<path fill-rule="evenodd" clip-rule="evenodd" d="M9.1549 5.74647L12.2196 14.0133C12.3998 14.4499 12.3466 14.9622 12.0713 15.3686C11.796 15.775 11.3372 16.0168 10.8437 16.0168H2.12188C1.62841 16.0168 1.16962 15.775 0.894159 15.3694C0.618894 14.9622 0.565614 14.4494 0.751944 13.9971L3.81085 5.74647V3.31354C3.23129 3.11333 2.8162 2.56817 2.8162 1.92878V1.53196C2.8162 0.723096 3.4798 0.0655823 4.29551 0.0655823H8.66993C9.48566 0.0655823 10.1492 0.723096 10.1492 1.53196V1.92878C10.1492 2.56857 9.73304 3.11447 9.1549 3.31396V5.74647ZM4.61242 11.6394C4.33493 11.6394 4.10945 11.8618 4.10945 12.1392C4.10945 12.4158 4.33493 12.6388 4.61242 12.6388C4.89209 12.6388 5.11769 12.4158 5.11769 12.1392C5.11769 11.8618 4.89209 11.6394 4.61242 11.6394ZM8.23036 13.4374C8.23036 12.9626 7.84079 12.575 7.35899 12.575C6.87673 12.575 6.48806 12.9626 6.48806 13.4374C6.48806 13.9144 6.87673 14.3022 7.35899 14.3022C7.84079 14.3022 8.23036 13.9144 8.23036 13.4374ZM7.2461 10.0602C6.89879 10.0602 6.61735 10.3405 6.61735 10.6823C6.61735 11.0254 6.89879 11.3046 7.2461 11.3046C7.59152 11.3046 7.8728 11.0254 7.8728 10.6823C7.8728 10.3405 7.59152 10.0602 7.2461 10.0602ZM4.78928 2.91007V5.91872L3.64786 8.9975H3.69295C3.69295 8.9975 8.36233 8.92141 9.00133 8.26338C9.00798 8.25668 9.01412 8.25144 9.0203 8.24616C9.02497 8.24217 9.02966 8.23816 9.03461 8.23349L8.17631 5.91872V2.425H8.66551C8.94601 2.425 9.17068 2.20238 9.17068 1.92878V1.53196C9.17068 1.25795 8.94601 1.03553 8.66993 1.03553H4.29551C4.01944 1.03553 3.79465 1.25795 3.79465 1.53196V1.92878C3.79465 2.20238 4.01944 2.425 4.29551 2.425H4.78486L4.78928 2.91007ZM6.82295 7.11067C6.82295 7.48381 6.51742 7.78701 6.14249 7.78701C5.76538 7.78701 5.46028 7.48381 5.46028 7.11067C5.46028 6.73914 5.76538 6.43533 6.14249 6.43533C6.51742 6.43533 6.82295 6.73914 6.82295 7.11067Z" fill="white"/>
</svg>
