<svg width="17" height="17" viewBox="0 0 17 17" fill="none" xmlns="http://www.w3.org/2000/svg">
<path fill-rule="evenodd" clip-rule="evenodd" d="M15.6167 4.14859H9.93636L12.177 1.46618C12.2129 1.47264 12.2437 1.48627 12.2809 1.48627C12.6497 1.48627 12.9481 1.18878 12.9481 0.820546C12.9481 0.454473 12.6497 0.154938 12.2809 0.154938C11.9139 0.154938 11.6137 0.454473 11.6137 0.820546C11.6137 0.901049 11.6339 0.975187 11.6596 1.04613L9.06782 4.14859H8.82361L6.233 1.04613C6.25815 0.975187 6.27769 0.901049 6.27769 0.820546C6.27769 0.454473 5.97935 0.154938 5.61052 0.154938C5.24295 0.154938 4.94334 0.454473 4.94334 0.820546C4.94334 1.18878 5.24295 1.48627 5.61052 1.48627C5.64765 1.48627 5.67976 1.47264 5.71436 1.46618L7.95567 4.14859H2.27532C1.53893 4.14859 0.94165 4.74517 0.94165 5.47917V14.7977C0.94165 15.5327 1.53893 16.1285 2.27532 16.1285H15.6167C16.3531 16.1285 16.9504 15.5327 16.9504 14.7977V5.47917C16.9504 4.74517 16.3531 4.14859 15.6167 4.14859ZM12.9481 13.4664C12.9481 14.2014 12.3514 14.7977 11.6137 14.7977H3.60969C2.87325 14.7977 2.27532 14.2014 2.27532 13.4664V6.81079C2.27532 6.07536 2.87325 5.47917 3.60969 5.47917H11.6137C12.3514 5.47917 12.9481 6.07536 12.9481 6.81079V13.4664ZM14.9137 7.51787C14.3875 7.51787 13.9608 7.09157 13.9608 6.56708C13.9608 6.04207 14.3875 5.61679 14.9137 5.61679C15.4392 5.61679 15.8659 6.04207 15.8659 6.56708C15.8659 7.09157 15.4392 7.51787 14.9137 7.51787Z" fill="white"/>
</svg>
