<svg width="17" height="17" viewBox="0 0 17 17" fill="none" xmlns="http://www.w3.org/2000/svg">
<path fill-rule="evenodd" clip-rule="evenodd" d="M7.92922 6.77818L7.9669 6.77983C8.10429 6.77983 8.23687 6.71439 8.32195 6.6037C8.41627 6.4805 8.44123 6.31932 8.38891 6.17401C8.38442 6.16132 7.95575 4.91572 8.51243 3.8783C9.10335 2.89034 9.29589 2.09468 9.0844 1.51396C8.89454 0.992124 8.46633 0.85369 8.41927 0.840067C8.18475 0.770831 7.93048 0.909284 7.86132 1.14439C7.79104 1.3833 7.9267 1.63583 8.14482 1.69993C8.14736 1.70084 8.20782 1.73115 8.24248 1.82607C8.29336 1.96546 8.34757 2.39748 7.7586 3.38749L7.73698 3.42393C7.69199 3.4987 7.64344 3.57622 7.59098 3.6571C6.90949 4.71061 6.70534 5.54046 6.98422 6.12199C7.20859 6.59161 7.68163 6.75515 7.92922 6.77818ZM14.2693 14.4288C13.6673 14.386 12.9784 14.3524 12.2348 14.3269C12.9133 13.7368 13.4861 12.9718 13.9071 12.0817C14.1127 12.2892 14.3682 12.4404 14.6578 12.5111C14.7845 12.5423 14.9127 12.5576 15.0399 12.5576C15.331 12.5576 15.6174 12.4771 15.8723 12.3205C16.2386 12.0953 16.4964 11.7399 16.5975 11.3196C16.6988 10.8989 16.6315 10.4642 16.4083 10.095C16.0341 9.47562 15.3123 9.20672 14.649 9.37321C14.6778 9.08466 14.6974 8.7925 14.6974 8.49401C14.6974 8.18262 14.4474 7.93039 14.1385 7.93039H3.79264C3.484 7.93039 3.23371 8.18262 3.23371 8.49401C3.23371 10.9073 4.2086 13.0398 5.69311 14.3275C4.95084 14.3529 4.263 14.3864 3.66196 14.4288C1.56954 14.5763 0.961182 14.7168 0.961182 15.3628C0.961182 16.0084 1.56954 16.1491 3.66196 16.2967C5.08057 16.3969 6.96419 16.4521 8.96562 16.4521C10.9669 16.4521 12.8505 16.3969 14.2693 16.2967C16.3617 16.1491 16.9699 16.0084 16.9699 15.3628C16.9699 14.7168 16.3617 14.5763 14.2693 14.4288ZM14.5372 10.1366C14.5393 10.1352 14.5416 10.1346 14.5439 10.134C14.5461 10.1335 14.5482 10.1329 14.5503 10.1316C14.9904 9.86127 15.5671 10.0026 15.8355 10.4467C15.9656 10.6616 16.0045 10.915 15.9456 11.16C15.8867 11.405 15.737 11.6116 15.5233 11.7426C15.31 11.8743 15.0585 11.9133 14.8162 11.8541C14.5733 11.7946 14.3679 11.6434 14.2381 11.428C14.2313 11.4165 14.2221 11.4078 14.2128 11.3991C14.2078 11.3945 14.2029 11.3898 14.1983 11.3847C14.3415 10.9862 14.4542 10.5687 14.5372 10.1366ZM4.37193 9.05753H13.5594C13.3397 12.0961 11.3633 14.4818 8.96562 14.4818C6.56795 14.4818 4.59164 12.0961 4.37193 9.05753ZM10.3461 6.86286L10.3148 6.86195C10.0817 6.8392 9.76527 6.69862 9.61103 6.37555C9.41307 5.96359 9.53786 5.42127 9.99298 4.71787C10.0205 4.67497 10.0465 4.6334 10.0709 4.59325L10.0967 4.55014C10.4476 3.96124 10.3862 3.74731 10.3781 3.7251C10.3795 3.72583 10.3981 3.73401 10.424 3.74148C10.3167 3.70912 10.2278 3.63622 10.1745 3.53679C10.1208 3.43674 10.109 3.32194 10.1414 3.2133C10.2046 2.99611 10.4466 2.86258 10.6645 2.92648C10.7262 2.94512 11.0321 3.0549 11.1693 3.431C11.3173 3.83806 11.1982 4.35476 10.8058 5.01034C10.5007 5.57962 10.7397 6.28517 10.7427 6.29389L10.7427 6.29392C10.792 6.43114 10.7683 6.58249 10.6791 6.69832C10.5993 6.80174 10.4749 6.86286 10.3461 6.86286Z" fill="white"/>
</svg>
