<svg width="17" height="16" viewBox="0 0 17 16" fill="none" xmlns="http://www.w3.org/2000/svg">
<path fill-rule="evenodd" clip-rule="evenodd" d="M16.2787 0.698858C16.3341 0.670076 16.402 0.676952 16.4523 0.715346C16.5013 0.754262 16.5234 0.818054 16.5087 0.879182L13.5982 12.7609C13.5876 12.804 13.5594 12.8399 13.521 12.8623C13.4967 12.8758 13.4688 12.8834 13.4409 12.8834C13.4252 12.8834 13.4096 12.8808 13.3942 12.8765L7.57221 11.1203C7.52034 11.1047 7.48002 11.0642 7.46431 11.0129C7.44926 10.9611 7.4611 10.9052 7.49602 10.8645L13.2914 4.07265L5.74633 10.4585C5.70436 10.497 5.64417 10.5094 5.58971 10.4921L0.629173 8.93013C0.567024 8.90997 0.522868 8.85477 0.517111 8.79047C0.511981 8.72544 0.545934 8.66431 0.604853 8.63461L16.2787 0.698858ZM7.66704 12.3653L9.27581 12.8555C9.32386 12.8702 9.36226 12.9063 9.37987 12.9531C9.3975 12.9993 9.39203 13.0518 9.36482 13.0937L7.75603 15.6106C7.72527 15.6577 7.67373 15.6851 7.61962 15.6851C7.60424 15.6851 7.5892 15.6828 7.57477 15.6789C7.50529 15.6587 7.45791 15.5964 7.45791 15.5252V12.5183C7.45791 12.4674 7.48192 12.4195 7.52355 12.3893C7.56484 12.359 7.61832 12.3495 7.66704 12.3653Z" fill="white"/>
</svg>
